<?xml version="1.0" encoding="utf-8"?>
<!-- Generator: Adobe Illustrator 19.0.0, SVG Export Plug-In . SVG Version: 6.00 Build 0)  -->
<svg version="1.1" id="Layer_1" xmlns="http://www.w3.org/2000/svg" xmlns:xlink="http://www.w3.org/1999/xlink" x="0px" y="0px"
	 viewBox="-388 266.3 64 64" style="enable-background:new -388 266.3 64 64;" xml:space="preserve">
<style type="text/css">
	.st0{fill:#FFFFFF;}
	.st1{fill:none;stroke:#000000;stroke-width:4;stroke-miterlimit:10;}
	.st2{fill:none;stroke:#000000;stroke-width:5;stroke-miterlimit:10;}
</style>
<path class="st0" d="M-720.4,557.9c2.9,1,6.1-0.5,7.1-3.5s-0.5-6.1-3.5-7.1s-6.1,0.5-7.1,3.5C-724.9,553.7-723.4,556.9-720.4,557.9z
	"/>
<path class="st0" d="M-731.1,584.9c-0.2,3,2,5.8,5.1,6.1c3.1,0.2,5.8-2,6.1-5.1c0.2-3-2-5.8-5.1-6.1
	C-728.2,579.6-730.9,581.8-731.1,584.9z"/>
<path class="st0" d="M-742.1,571.4c1.7,2.6,5.2,3.4,7.8,1.7c2.6-1.7,3.4-5.2,1.7-7.8c-1.7-2.6-5.2-3.4-7.8-1.7
	C-743.1,565.2-743.8,568.8-742.1,571.4z"/>
<path d="M-765.9,565.5c-3.1-1.9-7.2-0.8-9.1,2.3c-1.9,3.1-0.8,7.2,2.3,9.1c3.1,1.9,7.2,0.8,9.1-2.3
	C-761.7,571.5-762.8,567.4-765.9,565.5z"/>
<path d="M-734.1,562.6c-3.1-1.9-7.2-0.8-9.1,2.3c-1.9,3.1-0.8,7.2,2.3,9.1c3.1,1.9,7.2,0.8,9.1-2.3
	C-729.9,568.6-730.9,564.5-734.1,562.6z"/>
<path d="M-721.8,579.7c-3.1-1.9-7.2-0.8-9.1,2.3c-1.9,3.1-0.8,7.2,2.3,9.1c3.1,1.9,7.2,0.8,9.1-2.3
	C-717.6,585.8-718.6,581.7-721.8,579.7z"/>
<path d="M-715.2,546.9c-3.1-1.9-7.2-0.8-9.1,2.3c-1.9,3.1-0.8,7.2,2.3,9.1c3.1,1.9,7.2,0.8,9.1-2.3
	C-711.1,552.8-712.1,548.8-715.2,546.9z"/>
<circle class="st1" cx="-743" cy="564.6" r="27.5"/>
<line class="st1" x1="-769.3" y1="571.2" x2="-737.4" y2="568.3"/>
<line class="st1" x1="-737.4" y1="568.3" x2="-718.6" y2="552.6"/>
<line class="st1" x1="-737.4" y1="568.3" x2="-725.5" y2="585.4"/>
<path class="st0" d="M-332.4,291.6c2.9,1,6.1-0.5,7.1-3.5s-0.5-6.1-3.5-7.1s-6.1,0.5-7.1,3.5C-336.9,287.4-335.4,290.6-332.4,291.6z
	"/>
<path class="st0" d="M-343.1,318.6c-0.2,3,2,5.8,5.1,6.1c3.1,0.2,5.8-2,6.1-5.1c0.2-3-2-5.8-5.1-6.1
	C-340.2,313.3-342.9,315.5-343.1,318.6z"/>
<path class="st0" d="M-354.1,305.1c1.7,2.6,5.2,3.4,7.8,1.7c2.6-1.7,3.4-5.2,1.7-7.8c-1.7-2.6-5.2-3.4-7.8-1.7
	C-355.1,298.9-355.8,302.5-354.1,305.1z"/>
<path d="M-377.9,299.2c-3.1-1.9-7.2-0.8-9.1,2.3c-1.9,3.1-0.8,7.2,2.3,9.1c3.1,1.9,7.2,0.8,9.1-2.3
	C-373.7,305.2-374.8,301.1-377.9,299.2z"/>
<path d="M-346.1,296.3c-3.1-1.9-7.2-0.8-9.1,2.3c-1.9,3.1-0.8,7.2,2.3,9.1c3.1,1.9,7.2,0.8,9.1-2.3
	C-341.9,302.3-342.9,298.2-346.1,296.3z"/>
<path d="M-333.8,313.4c-3.1-1.9-7.2-0.8-9.1,2.3c-1.9,3.1-0.8,7.2,2.3,9.1c3.1,1.9,7.2,0.8,9.1-2.3
	C-329.6,319.5-330.6,315.4-333.8,313.4z"/>
<path d="M-327.2,280.6c-3.1-1.9-7.2-0.8-9.1,2.3c-1.9,3.1-0.8,7.2,2.3,9.1c3.1,1.9,7.2,0.8,9.1-2.3
	C-323.1,286.5-324.1,282.5-327.2,280.6z"/>
<circle class="st2" cx="-355" cy="298.3" r="27.5"/>
<line class="st2" x1="-381.3" y1="304.9" x2="-349.4" y2="302"/>
<line class="st2" x1="-349.4" y1="302" x2="-330.6" y2="286.3"/>
<line class="st2" x1="-349.4" y1="302" x2="-337.5" y2="319.1"/>
</svg>
