<?xml version="1.0" encoding="utf-8"?>
<!-- Generator: Adobe Illustrator 19.0.0, SVG Export Plug-In . SVG Version: 6.00 Build 0)  -->
<svg version="1.1" id="Layer_1" xmlns="http://www.w3.org/2000/svg" xmlns:xlink="http://www.w3.org/1999/xlink" x="0px" y="0px"
	 viewBox="-361 238.9 117.4 117.4" style="enable-background:new -361 238.9 117.4 117.4;" xml:space="preserve">
<style type="text/css">
	.st0{fill:url(#SVGID_1_);}
	.st1{fill:none;stroke:#FFFFFF;stroke-width:6;stroke-miterlimit:10;}
	.st2{fill:#FFFFFF;}
</style>
<g>
	
		<linearGradient id="SVGID_1_" gradientUnits="userSpaceOnUse" x1="-302.3" y1="832.84" x2="-302.3" y2="715.44" gradientTransform="matrix(1 0 0 1 0 -476.56)">
		<stop  offset="0" style="stop-color:#1383C6"/>
		<stop  offset="1" style="stop-color:#28B6DB"/>
	</linearGradient>
	<circle class="st0" cx="-302.3" cy="297.6" r="58.7"/>
	<g>
		<circle class="st1" cx="-302.3" cy="297.4" r="43.7"/>
		<g>
			<path class="st2" d="M-266.3,286.7c4.7,1.6,9.8-0.9,11.4-5.6c1.6-4.7-0.9-9.8-5.6-11.4c-4.7-1.6-9.8,0.9-11.4,5.6
				C-273.5,280-271,285.1-266.3,286.7z"/>
			<line class="st1" x1="-263.4" y1="278.3" x2="-293.5" y2="303.3"/>
		</g>
		<g>
			<path class="st2" d="M-283.4,329.9c-0.4,4.9,3.2,9.3,8.2,9.8c5,0.4,9.3-3.2,9.8-8.2c0.4-4.9-3.2-9.3-8.2-9.8
				C-278.6,321.3-283,324.9-283.4,329.9z"/>
			<line class="st1" x1="-274.5" y1="330.7" x2="-293.5" y2="303.3"/>
		</g>
		<path class="st2" d="M-301,308.2c2.7,4.2,8.3,5.4,12.4,2.7c4.2-2.7,5.4-8.3,2.7-12.4c-2.7-4.2-8.3-5.4-12.4-2.7
			C-302.5,298.4-303.7,304-301,308.2z"/>
		<g>
			<path class="st2" d="M-339.8,300.3c-4.3-2.5-9.8-1.1-12.3,3.1c-2.5,4.3-1.1,9.8,3.1,12.3c4.3,2.5,9.8,1.1,12.3-3.1
				C-334.2,308.4-335.6,302.9-339.8,300.3z"/>
			<line class="st1" x1="-344.4" y1="308" x2="-293.5" y2="303.3"/>
		</g>
	</g>
</g>
</svg>
